<svg data-v-423bf9ae="" xmlns="http://www.w3.org/2000/svg" viewBox="0 0 73.01663467785457 60" class="icon"><!----><!----><!----><!----><g data-v-423bf9ae="" id="5401c2e1-b8de-484e-965b-16ea7f4e614e" transform="matrix(1.5589171477377641,0,0,1.5589171477377641,-0.876032361735426,-7.417036978670325)" stroke="none" fill="#FFDB00" style="background-color:#170c1f"><path d="M.8 11.4c.4 8 .9 16 1.3 23.9.2 3.7-.5 7 3.8 7.5 7.5.8 15.3.3 22.8.2 3.8 0 7.6-.1 11.4-.2 1.6 0 4.9 0 6.2-1.4.9-1.1 1.1-1.7 1.1-3.2 0-3.8-.3-7.7-.5-11.6-.2-3.9-.3-7.7-.5-11.6 0-.9.5-4.4-.7-5.1-1.9-1.1-5-.4-7.1-.4H1.9c-.8 0-.8 1.3 0 1.3h40.5c3.7 0 2.8 7.8 2.9 10 .3 5.8.5 11.6.8 17.3.3 5.6-30.6 3.5-34.6 3.5-2 0-7.7.9-8.1-2.4-.2-3.2-.2-6.6-.4-9.9-.3-6-.7-12-1-17.9 0-.8-1.3-.8-1.2 0z"></path><path d="M10.2 10.2c.1-.6.1-1.2 0-1.8-.1-1.1.2-1.7 1.5-1.7.7 0 2.5-.3 2.8.5.3.9.6 1.7.9 2.6.3.8 1.5.4 1.2-.3-.4-1-.6-2.6-1.3-3.4-.8-.8-2-.6-3.1-.6-.9 0-2.2-.2-2.8.8-.8 1.1-.2 2.3-.5 3.6-.1.8 1.1 1.1 1.3.3zM21.5 9.6c.1-.7 0-1.4 0-2.1 0-1.5 2.3-1.2 3.2-1.3h2.7c.9-.1 1.6.3 2.2 1.1 0 .5-.1 1 0 1.5.1.8 1.3.8 1.3 0-.1-1.1.3-2.4-.6-3.3-1-1-3.6-.7-4.9-.7-1.1 0-3.7-.2-4.4.8-1 1.4-.6 2.6-.8 4-.1.8 1.2.8 1.3 0zM1.2 11.3c.8 0 .8-1.3 0-1.3s-.9 1.3 0 1.3zM9.4 16.6c7-.4 14-.6 21-.6 1.5-.2 3 .1 4.5.7.2 1.9.1 3.8.1 5.7 0 3.8-.1 7.6-.2 11.4-.2 4.2-3.8 3.1-7 3.1H12.7c-5.1 0-4.8-5.2-5-8.1-.3-3.9-1.9-9.9 2.1-12.4.7-.4 0-1.5-.6-1.1-3 2-3.3 4.8-3.1 8.3.3 4.1 0 8.8 1.6 12.6 1.2 2.9 6.6 2 8.8 2 5.9 0 11.9.3 17.8-.1 2.1-.1 1.8-2.9 1.9-4.3.3-5.8.7-12 .1-17.7-.3-2.2-4.4-1.4-5.6-1.4-7 0-14 .2-21 .6-1.2.1-1.2 1.4-.3 1.3z"></path><path d="M17.3 22.7c.2 3.1.7 6.1 1.5 9 .1.5.7.6 1 .3 1.9-1.7 3.9-3.1 6.1-4.4.4-.2.4-.9 0-1.1-2.5-1.3-5-2.7-7.5-4-.7-.4-1.3.7-.6 1.1 2.5 1.3 5 2.7 7.5 4v-1.1c-2.3 1.3-4.4 2.9-6.4 4.6.3.1.7.2 1 .3-.8-2.9-1.2-5.8-1.4-8.7 0-.8-1.2-.8-1.2 0z"></path></g><!----></svg>