<svg data-v-423bf9ae="" xmlns="http://www.w3.org/2000/svg" viewBox="0 0 315 90" class="iconLeft"><!----><!----><!----><g data-v-423bf9ae="" id="268a812b-2788-4064-ae6a-fca6a00039b4" fill="#FFFFFF" transform="matrix(6.302521336710863,0,0,6.302521336710863,129.46193207499778,-7.941179995718393)"><path d="M6.03 10.86L6.17 12.68L6.17 12.68Q5.82 12.89 5.23 13.03L5.23 13.03L5.23 13.03Q4.63 13.16 4.09 13.16L4.09 13.16L4.09 13.16Q2.58 13.16 1.83 12.58L1.83 12.58L1.83 12.58Q1.09 12.00 1.09 10.67L1.09 10.67L1.09 8.19L0.01 8.19L0.01 6.02L1.09 6.02L1.09 4.54L4.31 3.64L4.31 6.02L6.08 6.02L6.08 8.19L4.31 8.19L4.31 10.16L4.31 10.16Q4.31 10.64 4.51 10.84L4.51 10.84L4.51 10.84Q4.72 11.05 5.15 11.05L5.15 11.05L5.15 11.05Q5.67 11.05 6.03 10.86L6.03 10.86ZM6.94 13.02L6.94 11.06L6.94 11.06Q8.96 10.00 10.02 8.89L10.02 8.89L10.02 8.89Q11.07 7.78 11.07 6.93L11.07 6.93L11.07 6.93Q11.07 6.57 10.89 6.33L10.89 6.33L10.89 6.33Q10.71 6.09 10.32 6.09L10.32 6.09L10.32 6.09Q9.84 6.09 9.62 6.49L9.62 6.49L9.62 6.49Q9.39 6.89 9.42 7.73L9.42 7.73L6.64 7.06L6.64 7.06Q6.61 5.92 7.11 5.16L7.11 5.16L7.11 5.16Q7.62 4.40 8.51 4.02L8.51 4.02L8.51 4.02Q9.41 3.64 10.54 3.64L10.54 3.64L10.54 3.64Q11.86 3.64 12.70 4.10L12.70 4.10L12.70 4.10Q13.54 4.56 13.91 5.26L13.91 5.26L13.91 5.26Q14.28 5.95 14.28 6.65L14.28 6.65L14.28 6.65Q14.28 7.94 13.31 8.93L13.31 8.93L13.31 8.93Q12.35 9.93 10.70 10.71L10.70 10.71L10.70 10.74L10.70 10.74Q11.56 10.65 12.89 10.65L12.89 10.65L14.34 10.65L14.34 13.02L6.94 13.02ZM20.73 10.86L20.87 12.68L20.87 12.68Q20.52 12.89 19.93 13.03L19.93 13.03L19.93 13.03Q19.33 13.16 18.79 13.16L18.79 13.16L18.79 13.16Q17.28 13.16 16.53 12.58L16.53 12.58L16.53 12.58Q15.79 12.00 15.79 10.67L15.79 10.67L15.79 8.19L14.71 8.19L14.71 6.02L15.79 6.02L15.79 4.54L19.01 3.64L19.01 6.02L20.78 6.02L20.78 8.19L19.01 8.19L19.01 10.16L19.01 10.16Q19.01 10.64 19.21 10.84L19.21 10.84L19.21 10.84Q19.42 11.05 19.85 11.05L19.85 11.05L19.85 11.05Q20.37 11.05 20.73 10.86L20.73 10.86ZM29.30 6.02L27.05 13.02L23.04 13.02L20.79 6.02L24.12 6.02L24.77 9.46L25.02 11.13L25.07 11.13L25.33 9.45L25.97 6.02L29.30 6.02Z"></path></g><!----><g data-v-423bf9ae="" id="0aaa62e5-0275-4fa2-8c47-ca6c596d1627" transform="matrix(2.338375721606646,0,0,2.338375721606646,-0.5145756443582812,-10.36774201433117)" stroke="none" fill="#FFDB00"><path d="M.8 11.4c.4 8 .9 16 1.3 23.9.2 3.7-.5 7 3.8 7.5 7.5.8 15.3.3 22.8.2 3.8 0 7.6-.1 11.4-.2 1.6 0 4.9 0 6.2-1.4.9-1.1 1.1-1.7 1.1-3.2 0-3.8-.3-7.7-.5-11.6-.2-3.9-.3-7.7-.5-11.6 0-.9.5-4.4-.7-5.1-1.9-1.1-5-.4-7.1-.4H1.9c-.8 0-.8 1.3 0 1.3h40.5c3.7 0 2.8 7.8 2.9 10 .3 5.8.5 11.6.8 17.3.3 5.6-30.6 3.5-34.6 3.5-2 0-7.7.9-8.1-2.4-.2-3.2-.2-6.6-.4-9.9-.3-6-.7-12-1-17.9 0-.8-1.3-.8-1.2 0z"></path><path d="M10.2 10.2c.1-.6.1-1.2 0-1.8-.1-1.1.2-1.7 1.5-1.7.7 0 2.5-.3 2.8.5.3.9.6 1.7.9 2.6.3.8 1.5.4 1.2-.3-.4-1-.6-2.6-1.3-3.4-.8-.8-2-.6-3.1-.6-.9 0-2.2-.2-2.8.8-.8 1.1-.2 2.3-.5 3.6-.1.8 1.1 1.1 1.3.3zM21.5 9.6c.1-.7 0-1.4 0-2.1 0-1.5 2.3-1.2 3.2-1.3h2.7c.9-.1 1.6.3 2.2 1.1 0 .5-.1 1 0 1.5.1.8 1.3.8 1.3 0-.1-1.1.3-2.4-.6-3.3-1-1-3.6-.7-4.9-.7-1.1 0-3.7-.2-4.4.8-1 1.4-.6 2.6-.8 4-.1.8 1.2.8 1.3 0zM1.2 11.3c.8 0 .8-1.3 0-1.3s-.9 1.3 0 1.3zM9.4 16.6c7-.4 14-.6 21-.6 1.5-.2 3 .1 4.5.7.2 1.9.1 3.8.1 5.7 0 3.8-.1 7.6-.2 11.4-.2 4.2-3.8 3.1-7 3.1H12.7c-5.1 0-4.8-5.2-5-8.1-.3-3.9-1.9-9.9 2.1-12.4.7-.4 0-1.5-.6-1.1-3 2-3.3 4.8-3.1 8.3.3 4.1 0 8.8 1.6 12.6 1.2 2.9 6.6 2 8.8 2 5.9 0 11.9.3 17.8-.1 2.1-.1 1.8-2.9 1.9-4.3.3-5.8.7-12 .1-17.7-.3-2.2-4.4-1.4-5.6-1.4-7 0-14 .2-21 .6-1.2.1-1.2 1.4-.3 1.3z"></path><path d="M17.3 22.7c.2 3.1.7 6.1 1.5 9 .1.5.7.6 1 .3 1.9-1.7 3.9-3.1 6.1-4.4.4-.2.4-.9 0-1.1-2.5-1.3-5-2.7-7.5-4-.7-.4-1.3.7-.6 1.1 2.5 1.3 5 2.7 7.5 4v-1.1c-2.3 1.3-4.4 2.9-6.4 4.6.3.1.7.2 1 .3-.8-2.9-1.2-5.8-1.4-8.7 0-.8-1.2-.8-1.2 0z"></path></g><!----></svg>